<svg width="245" height="80.702" viewBox="0 0 241 71.702" xmlns="http://www.w3.org/2000/svg"><g id="svgGroup" stroke-linecap="round" fill-rule="evenodd" font-size="9pt" stroke="#fff" stroke-width="0.25mm" fill="#fff" style="stroke:#fff;stroke-width:0.25mm;fill:#fff"><path d="M 176.1 0.001 L 182.3 0.001 L 208.3 60.601 L 209 60.601 L 235 0.001 L 241 0.001 L 241 70.701 L 235.2 70.701 L 235.2 14.301 L 234.7 14.301 L 210.2 70.701 L 206.8 70.701 L 182.3 14.301 L 181.9 14.301 L 181.9 70.701 L 176.1 70.701 L 176.1 0.001 Z M 104 70.701 L 83.1 70.701 L 83.1 0.001 L 105 0.001 Q 120.4 0.001 128.3 9.001 Q 134.62 16.202 135.884 28.715 A 65.611 65.611 0 0 1 136.2 35.301 Q 136.2 47.051 132.444 55.02 A 27.661 27.661 0 0 1 128.15 61.601 A 25.51 25.51 0 0 1 115.953 69.141 Q 111.74 70.384 106.651 70.637 A 53.5 53.5 0 0 1 104 70.701 Z M 33.3 0.001 L 39.3 0.001 L 39.3 50.801 A 36.712 36.712 0 0 1 38.875 56.59 Q 38.395 59.593 37.37 61.98 A 15.105 15.105 0 0 1 34.35 66.601 Q 29.4 71.701 19.5 71.701 Q 14.391 71.701 10.55 70.469 A 19.771 19.771 0 0 1 9.25 70.001 A 14.115 14.115 0 0 1 4.537 66.977 A 13.459 13.459 0 0 1 2.65 64.651 A 15.534 15.534 0 0 1 0.772 60.369 Q 0.145 58.114 0 55.401 L 6 55.401 A 17.401 17.401 0 0 0 6.37 58.548 Q 7.17 62.204 9.65 64.001 A 11.62 11.62 0 0 0 13.049 65.654 Q 15.775 66.501 19.5 66.501 Q 23.786 66.501 26.641 65.34 A 9.027 9.027 0 0 0 30.2 62.851 Q 33.032 59.516 33.277 52.216 A 42.283 42.283 0 0 0 33.3 50.801 L 33.3 0.001 Z M 89.1 65.501 L 103.5 65.501 Q 113.6 65.501 119.4 61.851 A 20.097 20.097 0 0 0 127.581 51.718 A 24.87 24.87 0 0 0 127.7 51.401 A 38.479 38.479 0 0 0 129.535 44.227 Q 130.2 40.097 130.2 35.301 A 60.725 60.725 0 0 0 129.796 28.101 Q 129.205 23.159 127.75 19.151 A 21.21 21.21 0 0 0 124.047 12.632 A 19.266 19.266 0 0 0 119.65 8.801 A 20.644 20.644 0 0 0 114.047 6.372 Q 111.421 5.643 108.283 5.368 A 45.663 45.663 0 0 0 104.3 5.201 L 89.1 5.201 L 89.1 65.501 Z M 57.2 70.701 L 57.2 61.401 L 66.1 61.401 L 66.1 70.701 L 57.2 70.701 Z M 150.2 70.701 L 150.2 61.401 L 159.1 61.401 L 159.1 70.701 L 150.2 70.701 Z" vector-effect="non-scaling-stroke"/></g></svg>